<?xml version="1.0" encoding="UTF-8"?>
<svg width="148px" height="117px" viewBox="0 0 148 117" version="1.1" xmlns="http://www.w3.org/2000/svg" xmlns:xlink="http://www.w3.org/1999/xlink">
    <!-- Generator: Sketch 49.2 (51160) - http://www.bohemiancoding.com/sketch -->
    <title>Group 11</title>
    <desc>Created with Sketch.</desc>
    <defs></defs>
    <g id="Page-1" stroke="none" stroke-width="1" fill="none" fill-rule="evenodd">
        <g id="Open-Data" transform="translate(-175.000000, -2962.000000)">
            <g id="Group-11" transform="translate(175.000000, 2962.000000)">
                <path d="M48.0739224,92.968708 L48.0739224,71.968708 C48.0739224,64.2367215 56.1620336,57.9305628 63.8940201,57.9305628 M84.3876139,57.968708 C92.1196004,57.968708 100.237594,64.2367215 100.237594,71.968708 L100.237594,92.968708" id="Rectangle-13" stroke="#213A8F" stroke-width="2.8" stroke-linecap="round"></path>
                <path d="M74.1559292,55.4965621 C82.6611144,55.4965621 89.5559292,40.2017472 89.5559292,31.6965621 C89.5559292,23.1913769 82.6611144,16.2965621 74.1559292,16.2965621 C65.6507441,16.2965621 58.7559292,23.1913769 58.7559292,31.6965621 C58.7559292,40.2017472 65.6507441,55.4965621 74.1559292,55.4965621 Z" id="Oval-4" stroke="#213A8F" stroke-width="2.8" fill="#FFFFFF"></path>
                <path d="M58.9454556,31.3415028 C63.4696046,31.3415028 66.7804277,30.5466917 68.8779248,28.9570695 L68.8779295,28.9570757 C70.9445053,27.3908877 73.816004,27.4482657 75.8183643,29.0957589 C77.6380132,30.5929215 79.774778,31.3415028 82.2286587,31.3415028" id="Path-5" stroke="#213A8F" stroke-width="2.8" stroke-linecap="round"></path>
                <path d="M99.8474453,58.3031507 L147.094835,11.0557606" id="Line-3" stroke="#213A8F" stroke-width="1.4" stroke-linecap="round" stroke-dasharray="7"></path>
                <path d="M105.336805,115.33424 L147.094835,73.5762102" id="Line-3-Copy-2" stroke="#213A8F" stroke-width="1.4" stroke-linecap="round" stroke-dasharray="7" transform="translate(126.319015, 94.792946) scale(1, -1) translate(-126.319015, -94.792946) "></path>
                <path d="M1.58400643,55.0108942 L45.5391401,11.0557606" id="Line-3-Copy" stroke="#213A8F" stroke-width="1.4" stroke-linecap="round" stroke-dasharray="7" transform="translate(23.363319, 32.972496) scale(-1, 1) translate(-23.363319, -32.972496) "></path>
                <path d="M1.65019399,116.065156 L42.7391401,74.9762102" id="Line-3-Copy-3" stroke="#213A8F" stroke-width="1.4" stroke-linecap="round" stroke-dasharray="7" transform="translate(21.963319, 95.492946) scale(-1, -1) translate(-21.963319, -95.492946) "></path>
                <rect id="Rectangle-9-Copy" fill="#213A8F" x="90.4947084" y="0.782483473" width="33.6" height="24.3033921" rx="5.6"></rect>
                <path d="M98.7603084,14.6757795 L98.7603084,10.4085795 L98.6091084,10.4085795 L98.0547084,12.4245795 L96.9963084,12.4245795 L96.9963084,12.3237795 L97.7019084,9.85417952 L99.8691084,9.85417952 L99.8691084,14.6757795 L101.330708,14.6757795 L101.330708,15.7341795 L97.0971084,15.7341795 L97.0971084,14.6757795 L98.7603084,14.6757795 Z M103.828308,12.7941795 C103.828308,12.6037786 103.898308,12.4385802 104.038308,12.2985795 C104.178309,12.1585788 104.343507,12.0885795 104.533908,12.0885795 C104.724309,12.0885795 104.889508,12.1585788 105.029508,12.2985795 C105.169509,12.4385802 105.239508,12.6037786 105.239508,12.7941795 C105.239508,12.9845805 105.169509,13.1497788 105.029508,13.2897795 C104.889508,13.4297802 104.724309,13.4997795 104.533908,13.4997795 C104.343507,13.4997795 104.178309,13.4297802 104.038308,13.2897795 C103.898308,13.1497788 103.828308,12.9845805 103.828308,12.7941795 Z M102.366708,12.1389795 C102.366708,11.3773757 102.558506,10.7865816 102.942108,10.3665795 C103.32571,9.94657742 103.856305,9.73657952 104.533908,9.73657952 C105.211512,9.73657952 105.742106,9.94657742 106.125708,10.3665795 C106.50931,10.7865816 106.701108,11.3773757 106.701108,12.1389795 L106.701108,13.4493795 C106.701108,14.2333834 106.50931,14.8297775 106.125708,15.2385795 C105.742106,15.6473816 105.211512,15.8517795 104.533908,15.8517795 C103.856305,15.8517795 103.32571,15.6473816 102.942108,15.2385795 C102.558506,14.8297775 102.366708,14.2333834 102.366708,13.4493795 L102.366708,12.1389795 Z M104.533908,14.8437795 C104.735509,14.8437795 104.903508,14.8115798 105.037908,14.7471795 C105.172309,14.6827792 105.281508,14.5917801 105.365508,14.4741795 C105.449509,14.3565789 105.508308,14.2165803 105.541908,14.0541795 C105.575509,13.8917787 105.592308,13.7125805 105.592308,13.5165795 L105.592308,12.0717795 C105.592308,11.8869786 105.572709,11.7133803 105.533508,11.5509795 C105.494308,11.3885787 105.432709,11.2485801 105.348708,11.1309795 C105.264708,11.0133789 105.155509,10.9195799 105.021108,10.8495795 C104.886708,10.7795792 104.724309,10.7445795 104.533908,10.7445795 C104.343507,10.7445795 104.181109,10.7795792 104.046708,10.8495795 C103.912308,10.9195799 103.803109,11.0133789 103.719108,11.1309795 C103.635108,11.2485801 103.573509,11.3885787 103.534308,11.5509795 C103.495108,11.7133803 103.475508,11.8869786 103.475508,12.0717795 L103.475508,13.5165795 C103.475508,13.7125805 103.492308,13.8917787 103.525908,14.0541795 C103.559509,14.2165803 103.618308,14.3565789 103.702308,14.4741795 C103.786309,14.5917801 103.895508,14.6827792 104.029908,14.7471795 C104.164309,14.8115798 104.332307,14.8437795 104.533908,14.8437795 Z M109.601908,14.6757795 L109.601908,10.4085795 L109.450708,10.4085795 L108.896308,12.4245795 L107.837908,12.4245795 L107.837908,12.3237795 L108.543508,9.85417952 L110.710708,9.85417952 L110.710708,14.6757795 L112.172308,14.6757795 L112.172308,15.7341795 L107.938708,15.7341795 L107.938708,14.6757795 L109.601908,14.6757795 Z M115.022708,14.6757795 L115.022708,10.4085795 L114.871508,10.4085795 L114.317108,12.4245795 L113.258708,12.4245795 L113.258708,12.3237795 L113.964308,9.85417952 L116.131508,9.85417952 L116.131508,14.6757795 L117.593108,14.6757795 L117.593108,15.7341795 L113.359508,15.7341795 L113.359508,14.6757795 L115.022708,14.6757795 Z" id="1011" fill="#FFFFFF"></path>
                <rect id="Rectangle-9-Copy" fill="#213A8F" x="33.7073061" y="89.2582458" width="33.6" height="24.3033921" rx="5.6"></rect>
                <path d="M41.9729061,103.151542 L41.9729061,98.8843419 L41.8217061,98.8843419 L41.2673061,100.900342 L40.2089061,100.900342 L40.2089061,100.799542 L40.9145061,98.3299419 L43.0817061,98.3299419 L43.0817061,103.151542 L44.5433061,103.151542 L44.5433061,104.209942 L40.3097061,104.209942 L40.3097061,103.151542 L41.9729061,103.151542 Z M47.0409061,101.269942 C47.0409061,101.079541 47.1109054,100.914343 47.2509061,100.774342 C47.3909068,100.634341 47.5561052,100.564342 47.7465061,100.564342 C47.9369071,100.564342 48.1021054,100.634341 48.2421061,100.774342 C48.3821068,100.914343 48.4521061,101.079541 48.4521061,101.269942 C48.4521061,101.460343 48.3821068,101.625541 48.2421061,101.765542 C48.1021054,101.905543 47.9369071,101.975542 47.7465061,101.975542 C47.5561052,101.975542 47.3909068,101.905543 47.2509061,101.765542 C47.1109054,101.625541 47.0409061,101.460343 47.0409061,101.269942 Z M45.5793061,100.614742 C45.5793061,99.8531381 45.7711042,99.262344 46.1547061,98.8423419 C46.5383081,98.4223398 47.0689027,98.2123419 47.7465061,98.2123419 C48.4241095,98.2123419 48.9547042,98.4223398 49.3383061,98.8423419 C49.7219081,99.262344 49.9137061,99.8531381 49.9137061,100.614742 L49.9137061,101.925142 C49.9137061,102.709146 49.7219081,103.30554 49.3383061,103.714342 C48.9547042,104.123144 48.4241095,104.327542 47.7465061,104.327542 C47.0689027,104.327542 46.5383081,104.123144 46.1547061,103.714342 C45.7711042,103.30554 45.5793061,102.709146 45.5793061,101.925142 L45.5793061,100.614742 Z M47.7465061,103.319542 C47.9481071,103.319542 48.1161055,103.287342 48.2505061,103.222942 C48.3849068,103.158542 48.4941057,103.067542 48.5781061,102.949942 C48.6621066,102.832341 48.720906,102.692343 48.7545061,102.529942 C48.7881063,102.367541 48.8049061,102.188343 48.8049061,101.992342 L48.8049061,100.547542 C48.8049061,100.362741 48.7853063,100.189143 48.7461061,100.026742 C48.7069059,99.8643411 48.6453066,99.7243425 48.5613061,99.6067419 C48.4773057,99.4891413 48.3681068,99.3953422 48.2337061,99.3253419 C48.0993055,99.2553415 47.9369071,99.2203419 47.7465061,99.2203419 C47.5561052,99.2203419 47.3937068,99.2553415 47.2593061,99.3253419 C47.1249055,99.3953422 47.0157066,99.4891413 46.9317061,99.6067419 C46.8477057,99.7243425 46.7861063,99.8643411 46.7469061,100.026742 C46.7077059,100.189143 46.6881061,100.362741 46.6881061,100.547542 L46.6881061,101.992342 C46.6881061,102.188343 46.704906,102.367541 46.7385061,102.529942 C46.7721063,102.692343 46.8309057,102.832341 46.9149061,102.949942 C46.9989066,103.067542 47.1081055,103.158542 47.2425061,103.222942 C47.3769068,103.287342 47.5449051,103.319542 47.7465061,103.319542 Z M52.8145061,103.151542 L52.8145061,98.8843419 L52.6633061,98.8843419 L52.1089061,100.900342 L51.0505061,100.900342 L51.0505061,100.799542 L51.7561061,98.3299419 L53.9233061,98.3299419 L53.9233061,103.151542 L55.3849061,103.151542 L55.3849061,104.209942 L51.1513061,104.209942 L51.1513061,103.151542 L52.8145061,103.151542 Z M58.2353061,103.151542 L58.2353061,98.8843419 L58.0841061,98.8843419 L57.5297061,100.900342 L56.4713061,100.900342 L56.4713061,100.799542 L57.1769061,98.3299419 L59.3441061,98.3299419 L59.3441061,103.151542 L60.8057061,103.151542 L60.8057061,104.209942 L56.5721061,104.209942 L56.5721061,103.151542 L58.2353061,103.151542 Z" id="1011" fill="#FFFFFF"></path>
                <rect id="Rectangle-9-Copy" fill="#213A8F" x="8.50730614" y="33.2201007" width="33.6" height="24.3033921" rx="5.6"></rect>
                <path d="M16.7729061,47.1133967 L16.7729061,42.8461967 L16.6217061,42.8461967 L16.0673061,44.8621967 L15.0089061,44.8621967 L15.0089061,44.7613967 L15.7145061,42.2917967 L17.8817061,42.2917967 L17.8817061,47.1133967 L19.3433061,47.1133967 L19.3433061,48.1717967 L15.1097061,48.1717967 L15.1097061,47.1133967 L16.7729061,47.1133967 Z M21.8409061,45.2317967 C21.8409061,45.0413958 21.9109054,44.8761974 22.0509061,44.7361967 C22.1909068,44.596196 22.3561052,44.5261967 22.5465061,44.5261967 C22.7369071,44.5261967 22.9021054,44.596196 23.0421061,44.7361967 C23.1821068,44.8761974 23.2521061,45.0413958 23.2521061,45.2317967 C23.2521061,45.4221977 23.1821068,45.587396 23.0421061,45.7273967 C22.9021054,45.8673974 22.7369071,45.9373967 22.5465061,45.9373967 C22.3561052,45.9373967 22.1909068,45.8673974 22.0509061,45.7273967 C21.9109054,45.587396 21.8409061,45.4221977 21.8409061,45.2317967 Z M20.3793061,44.5765967 C20.3793061,43.8149929 20.5711042,43.2241988 20.9547061,42.8041967 C21.3383081,42.3841946 21.8689027,42.1741967 22.5465061,42.1741967 C23.2241095,42.1741967 23.7547042,42.3841946 24.1383061,42.8041967 C24.5219081,43.2241988 24.7137061,43.8149929 24.7137061,44.5765967 L24.7137061,45.8869967 C24.7137061,46.6710006 24.5219081,47.2673947 24.1383061,47.6761967 C23.7547042,48.0849987 23.2241095,48.2893967 22.5465061,48.2893967 C21.8689027,48.2893967 21.3383081,48.0849987 20.9547061,47.6761967 C20.5711042,47.2673947 20.3793061,46.6710006 20.3793061,45.8869967 L20.3793061,44.5765967 Z M22.5465061,47.2813967 C22.7481071,47.2813967 22.9161055,47.249197 23.0505061,47.1847967 C23.1849068,47.1203964 23.2941057,47.0293973 23.3781061,46.9117967 C23.4621066,46.7941961 23.520906,46.6541975 23.5545061,46.4917967 C23.5881063,46.3293959 23.6049061,46.1501977 23.6049061,45.9541967 L23.6049061,44.5093967 C23.6049061,44.3245958 23.5853063,44.1509975 23.5461061,43.9885967 C23.5069059,43.8261959 23.4453066,43.6861973 23.3613061,43.5685967 C23.2773057,43.4509961 23.1681068,43.3571971 23.0337061,43.2871967 C22.8993055,43.2171964 22.7369071,43.1821967 22.5465061,43.1821967 C22.3561052,43.1821967 22.1937068,43.2171964 22.0593061,43.2871967 C21.9249055,43.3571971 21.8157066,43.4509961 21.7317061,43.5685967 C21.6477057,43.6861973 21.5861063,43.8261959 21.5469061,43.9885967 C21.5077059,44.1509975 21.4881061,44.3245958 21.4881061,44.5093967 L21.4881061,45.9541967 C21.4881061,46.1501977 21.504906,46.3293959 21.5385061,46.4917967 C21.5721063,46.6541975 21.6309057,46.7941961 21.7149061,46.9117967 C21.7989066,47.0293973 21.9081055,47.1203964 22.0425061,47.1847967 C22.1769068,47.249197 22.3449051,47.2813967 22.5465061,47.2813967 Z M27.6145061,47.1133967 L27.6145061,42.8461967 L27.4633061,42.8461967 L26.9089061,44.8621967 L25.8505061,44.8621967 L25.8505061,44.7613967 L26.5561061,42.2917967 L28.7233061,42.2917967 L28.7233061,47.1133967 L30.1849061,47.1133967 L30.1849061,48.1717967 L25.9513061,48.1717967 L25.9513061,47.1133967 L27.6145061,47.1133967 Z M33.0353061,47.1133967 L33.0353061,42.8461967 L32.8841061,42.8461967 L32.3297061,44.8621967 L31.2713061,44.8621967 L31.2713061,44.7613967 L31.9769061,42.2917967 L34.1441061,42.2917967 L34.1441061,47.1133967 L35.6057061,47.1133967 L35.6057061,48.1717967 L31.3721061,48.1717967 L31.3721061,47.1133967 L33.0353061,47.1133967 Z" id="1011" fill="#FFFFFF"></path>
                <rect id="Rectangle-9-Copy" fill="#213A8F" x="91.1073061" y="65.8824835" width="33.6" height="24.3033921" rx="5.6"></rect>
                <path d="M99.3729061,79.7757795 L99.3729061,75.5085795 L99.2217061,75.5085795 L98.6673061,77.5245795 L97.6089061,77.5245795 L97.6089061,77.4237795 L98.3145061,74.9541795 L100.481706,74.9541795 L100.481706,79.7757795 L101.943306,79.7757795 L101.943306,80.8341795 L97.7097061,80.8341795 L97.7097061,79.7757795 L99.3729061,79.7757795 Z M104.440906,77.8941795 C104.440906,77.7037786 104.510905,77.5385802 104.650906,77.3985795 C104.790907,77.2585788 104.956105,77.1885795 105.146506,77.1885795 C105.336907,77.1885795 105.502105,77.2585788 105.642106,77.3985795 C105.782107,77.5385802 105.852106,77.7037786 105.852106,77.8941795 C105.852106,78.0845805 105.782107,78.2497788 105.642106,78.3897795 C105.502105,78.5297802 105.336907,78.5997795 105.146506,78.5997795 C104.956105,78.5997795 104.790907,78.5297802 104.650906,78.3897795 C104.510905,78.2497788 104.440906,78.0845805 104.440906,77.8941795 Z M102.979306,77.2389795 C102.979306,76.4773757 103.171104,75.8865816 103.554706,75.4665795 C103.938308,75.0465774 104.468903,74.8365795 105.146506,74.8365795 C105.82411,74.8365795 106.354704,75.0465774 106.738306,75.4665795 C107.121908,75.8865816 107.313706,76.4773757 107.313706,77.2389795 L107.313706,78.5493795 C107.313706,79.3333834 107.121908,79.9297775 106.738306,80.3385795 C106.354704,80.7473816 105.82411,80.9517795 105.146506,80.9517795 C104.468903,80.9517795 103.938308,80.7473816 103.554706,80.3385795 C103.171104,79.9297775 102.979306,79.3333834 102.979306,78.5493795 L102.979306,77.2389795 Z M105.146506,79.9437795 C105.348107,79.9437795 105.516105,79.9115798 105.650506,79.8471795 C105.784907,79.7827792 105.894106,79.6917801 105.978106,79.5741795 C106.062107,79.4565789 106.120906,79.3165803 106.154506,79.1541795 C106.188106,78.9917787 106.204906,78.8125805 106.204906,78.6165795 L106.204906,77.1717795 C106.204906,76.9869786 106.185306,76.8133803 106.146106,76.6509795 C106.106906,76.4885787 106.045307,76.3485801 105.961306,76.2309795 C105.877306,76.1133789 105.768107,76.0195799 105.633706,75.9495795 C105.499305,75.8795792 105.336907,75.8445795 105.146506,75.8445795 C104.956105,75.8445795 104.793707,75.8795792 104.659306,75.9495795 C104.524905,76.0195799 104.415707,76.1133789 104.331706,76.2309795 C104.247706,76.3485801 104.186106,76.4885787 104.146906,76.6509795 C104.107706,76.8133803 104.088106,76.9869786 104.088106,77.1717795 L104.088106,78.6165795 C104.088106,78.8125805 104.104906,78.9917787 104.138506,79.1541795 C104.172106,79.3165803 104.230906,79.4565789 104.314906,79.5741795 C104.398907,79.6917801 104.508105,79.7827792 104.642506,79.8471795 C104.776907,79.9115798 104.944905,79.9437795 105.146506,79.9437795 Z M110.214506,79.7757795 L110.214506,75.5085795 L110.063306,75.5085795 L109.508906,77.5245795 L108.450506,77.5245795 L108.450506,77.4237795 L109.156106,74.9541795 L111.323306,74.9541795 L111.323306,79.7757795 L112.784906,79.7757795 L112.784906,80.8341795 L108.551306,80.8341795 L108.551306,79.7757795 L110.214506,79.7757795 Z M115.635306,79.7757795 L115.635306,75.5085795 L115.484106,75.5085795 L114.929706,77.5245795 L113.871306,77.5245795 L113.871306,77.4237795 L114.576906,74.9541795 L116.744106,74.9541795 L116.744106,79.7757795 L118.205706,79.7757795 L118.205706,80.8341795 L113.972106,80.8341795 L113.972106,79.7757795 L115.635306,79.7757795 Z" id="1011" fill="#FFFFFF"></path>
                <path d="M66.373663,56.3976449 C68.6642447,58.610442 71.3144613,59.7168406 74.3243129,59.7168406 C77.3341645,59.7168406 80.0563081,58.5324991 82.4907438,56.1638162 L80.0835908,52.815016 L76.6668741,55.0036967 L72.4407018,55.4040709 L68.7698924,54.0356111 L66.373663,56.3976449 Z" id="Path-8" fill-opacity="0.2" fill="#213A8F" style="mix-blend-mode: multiply;"></path>
                <path d="M82.4359759,60.2279846 C81.2292841,59.3262761 80.6259383,57.0015765 80.6259383,53.2538858" id="Path-6" stroke="#213A8F" stroke-width="2.8" stroke-linecap="round"></path>
            </g>
        </g>
    </g>
</svg>