<?xml version="1.0" encoding="UTF-8"?>
<svg width="150px" height="117px" viewBox="0 0 150 117" version="1.1" xmlns="http://www.w3.org/2000/svg" xmlns:xlink="http://www.w3.org/1999/xlink">
    <!-- Generator: Sketch 49.2 (51160) - http://www.bohemiancoding.com/sketch -->
    <title>Group 9</title>
    <desc>Created with Sketch.</desc>
    <defs>
        <rect id="path-1" x="0.85344321" y="0.342080975" width="144.58725" height="88.659375" rx="5.6"></rect>
    </defs>
    <g id="Page-1" stroke="none" stroke-width="1" fill="none" fill-rule="evenodd">
        <g id="Open-Data" transform="translate(-189.000000, -3399.000000)">
            <g id="Group-9" transform="translate(189.000000, 3399.000000)">
                <rect id="Rectangle-12-Copy-9" fill-opacity="0.2" fill="#213A8F" x="4.666193" y="4.54208098" width="144.58725" height="88.659375" rx="5.6"></rect>
                <g id="Rectangle-12-Copy-2">
                    <use fill="#FFFFFF" fill-rule="evenodd" xlink:href="#path-1"></use>
                    <rect stroke="#213A8F" stroke-width="2.8" x="2.25344321" y="1.74208098" width="141.78725" height="85.859375" rx="5.6"></rect>
                </g>
                <g id="Group-8" transform="translate(13.000000, 13.000000)">
                    <path d="M79.410089,6.080919 L79.410089,15.9804139" id="Line-2" stroke="#213A8F" stroke-width="2.1" stroke-linecap="round"></path>
                    <path d="M79.410089,6.080919 L79.410089,15.9804139" id="Line-2-Copy" stroke="#213A8F" stroke-width="2.1" stroke-linecap="round" transform="translate(79.410089, 10.980919) rotate(-90.000000) translate(-79.410089, -10.980919) "></path>
                    <path d="M79.410089,6.080919 L79.410089,15.9804139" id="Line-2" stroke="#213A8F" stroke-width="2.1" stroke-linecap="round" transform="translate(79.410089, 10.980919) rotate(-45.000000) translate(-79.410089, -10.980919) "></path>
                    <path d="M79.410089,6.080919 L79.410089,15.9804139" id="Line-2-Copy" stroke="#213A8F" stroke-width="2.1" stroke-linecap="round" transform="translate(79.410089, 10.980919) rotate(-135.000000) translate(-79.410089, -10.980919) "></path>
                    <g id="Group-4" fill="#213A8F">
                        <path d="M2.10503069,5.0118171 L2.10503069,0.744617097 L1.95383069,0.744617097 L1.39943069,2.7606171 L0.341030692,2.7606171 L0.341030692,2.6598171 L1.04663069,0.190217097 L3.21383069,0.190217097 L3.21383069,5.0118171 L4.67543069,5.0118171 L4.67543069,6.0702171 L0.441830692,6.0702171 L0.441830692,5.0118171 L2.10503069,5.0118171 Z M7.03303069,3.1302171 C7.03303069,2.93981615 7.10302999,2.7746178 7.24303069,2.6346171 C7.38303139,2.4946164 7.54822974,2.4246171 7.73863069,2.4246171 C7.92903165,2.4246171 8.09422999,2.4946164 8.23423069,2.6346171 C8.37423139,2.7746178 8.44423069,2.93981615 8.44423069,3.1302171 C8.44423069,3.32061805 8.37423139,3.4858164 8.23423069,3.6258171 C8.09422999,3.7658178 7.92903165,3.8358171 7.73863069,3.8358171 C7.54822974,3.8358171 7.38303139,3.7658178 7.24303069,3.6258171 C7.10302999,3.4858164 7.03303069,3.32061805 7.03303069,3.1302171 Z M5.57143069,2.4750171 C5.57143069,1.71341329 5.76322878,1.1226192 6.14683069,0.702617097 C6.53043261,0.282614997 7.06102731,0.072617097 7.73863069,0.072617097 C8.41623408,0.072617097 8.94682878,0.282614997 9.33043069,0.702617097 C9.71403261,1.1226192 9.90583069,1.71341329 9.90583069,2.4750171 L9.90583069,3.7854171 C9.90583069,4.56942102 9.71403261,5.16581505 9.33043069,5.5746171 C8.94682878,5.98341914 8.41623408,6.1878171 7.73863069,6.1878171 C7.06102731,6.1878171 6.53043261,5.98341914 6.14683069,5.5746171 C5.76322878,5.16581505 5.57143069,4.56942102 5.57143069,3.7854171 L5.57143069,2.4750171 Z M7.73863069,5.1798171 C7.9402317,5.1798171 8.10823002,5.14761742 8.24263069,5.0832171 C8.37703137,5.01881678 8.48623027,4.92781769 8.57023069,4.8102171 C8.65423111,4.69261651 8.71303053,4.55261791 8.74663069,4.3902171 C8.78023086,4.22781629 8.79703069,4.04861808 8.79703069,3.8526171 L8.79703069,2.4078171 C8.79703069,2.22301617 8.77743089,2.04941791 8.73823069,1.8870171 C8.6990305,1.72461629 8.63743111,1.58461769 8.55343069,1.4670171 C8.46943027,1.34941651 8.36023137,1.25561745 8.22583069,1.1856171 C8.09143002,1.11561675 7.92903165,1.0806171 7.73863069,1.0806171 C7.54822974,1.0806171 7.38583137,1.11561675 7.25143069,1.1856171 C7.11703002,1.25561745 7.00783111,1.34941651 6.92383069,1.4670171 C6.83983027,1.58461769 6.77823089,1.72461629 6.73903069,1.8870171 C6.6998305,2.04941791 6.68023069,2.22301617 6.68023069,2.4078171 L6.68023069,3.8526171 C6.68023069,4.04861808 6.69703053,4.22781629 6.73063069,4.3902171 C6.76423086,4.55261791 6.82303027,4.69261651 6.90703069,4.8102171 C6.99103111,4.92781769 7.10023002,5.01881678 7.23463069,5.0832171 C7.36903137,5.14761742 7.53702969,5.1798171 7.73863069,5.1798171 Z M12.6666307,5.0118171 L12.6666307,0.744617097 L12.5154307,0.744617097 L11.9610307,2.7606171 L10.9026307,2.7606171 L10.9026307,2.6598171 L11.6082307,0.190217097 L13.7754307,0.190217097 L13.7754307,5.0118171 L15.2370307,5.0118171 L15.2370307,6.0702171 L11.0034307,6.0702171 L11.0034307,5.0118171 L12.6666307,5.0118171 Z M17.9474307,5.0118171 L17.9474307,0.744617097 L17.7962307,0.744617097 L17.2418307,2.7606171 L16.1834307,2.7606171 L16.1834307,2.6598171 L16.8890307,0.190217097 L19.0562307,0.190217097 L19.0562307,5.0118171 L20.5178307,5.0118171 L20.5178307,6.0702171 L16.2842307,6.0702171 L16.2842307,5.0118171 L17.9474307,5.0118171 Z M28.1562307,3.1302171 C28.1562307,2.93981615 28.22623,2.7746178 28.3662307,2.6346171 C28.5062314,2.4946164 28.6714298,2.4246171 28.8618307,2.4246171 C29.0522317,2.4246171 29.21743,2.4946164 29.3574307,2.6346171 C29.4974314,2.7746178 29.5674307,2.93981615 29.5674307,3.1302171 C29.5674307,3.32061805 29.4974314,3.4858164 29.3574307,3.6258171 C29.21743,3.7658178 29.0522317,3.8358171 28.8618307,3.8358171 C28.6714298,3.8358171 28.5062314,3.7658178 28.3662307,3.6258171 C28.22623,3.4858164 28.1562307,3.32061805 28.1562307,3.1302171 Z M26.6946307,2.4750171 C26.6946307,1.71341329 26.8864288,1.1226192 27.2700307,0.702617097 C27.6536326,0.282614997 28.1842273,0.072617097 28.8618307,0.072617097 C29.5394341,0.072617097 30.0700288,0.282614997 30.4536307,0.702617097 C30.8372326,1.1226192 31.0290307,1.71341329 31.0290307,2.4750171 L31.0290307,3.7854171 C31.0290307,4.56942102 30.8372326,5.16581505 30.4536307,5.5746171 C30.0700288,5.98341914 29.5394341,6.1878171 28.8618307,6.1878171 C28.1842273,6.1878171 27.6536326,5.98341914 27.2700307,5.5746171 C26.8864288,5.16581505 26.6946307,4.56942102 26.6946307,3.7854171 L26.6946307,2.4750171 Z M28.8618307,5.1798171 C29.0634317,5.1798171 29.23143,5.14761742 29.3658307,5.0832171 C29.5002314,5.01881678 29.6094303,4.92781769 29.6934307,4.8102171 C29.7774311,4.69261651 29.8362305,4.55261791 29.8698307,4.3902171 C29.9034309,4.22781629 29.9202307,4.04861808 29.9202307,3.8526171 L29.9202307,2.4078171 C29.9202307,2.22301617 29.9006309,2.04941791 29.8614307,1.8870171 C29.8222305,1.72461629 29.7606311,1.58461769 29.6766307,1.4670171 C29.5926303,1.34941651 29.4834314,1.25561745 29.3490307,1.1856171 C29.21463,1.11561675 29.0522317,1.0806171 28.8618307,1.0806171 C28.6714298,1.0806171 28.5090314,1.11561675 28.3746307,1.1856171 C28.24023,1.25561745 28.1310311,1.34941651 28.0470307,1.4670171 C27.9630303,1.58461769 27.9014309,1.72461629 27.8622307,1.8870171 C27.8230305,2.04941791 27.8034307,2.22301617 27.8034307,2.4078171 L27.8034307,3.8526171 C27.8034307,4.04861808 27.8202305,4.22781629 27.8538307,4.3902171 C27.8874309,4.55261791 27.9462303,4.69261651 28.0302307,4.8102171 C28.1142311,4.92781769 28.22343,5.01881678 28.3578307,5.0832171 C28.4922314,5.14761742 28.6602297,5.1798171 28.8618307,5.1798171 Z M33.7898307,5.0118171 L33.7898307,0.744617097 L33.6386307,0.744617097 L33.0842307,2.7606171 L32.0258307,2.7606171 L32.0258307,2.6598171 L32.7314307,0.190217097 L34.8986307,0.190217097 L34.8986307,5.0118171 L36.3602307,5.0118171 L36.3602307,6.0702171 L32.1266307,6.0702171 L32.1266307,5.0118171 L33.7898307,5.0118171 Z M39.0706307,5.0118171 L39.0706307,0.744617097 L38.9194307,0.744617097 L38.3650307,2.7606171 L37.3066307,2.7606171 L37.3066307,2.6598171 L38.0122307,0.190217097 L40.1794307,0.190217097 L40.1794307,5.0118171 L41.6410307,5.0118171 L41.6410307,6.0702171 L37.4074307,6.0702171 L37.4074307,5.0118171 L39.0706307,5.0118171 Z M44.3514307,5.0118171 L44.3514307,0.744617097 L44.2002307,0.744617097 L43.6458307,2.7606171 L42.5874307,2.7606171 L42.5874307,2.6598171 L43.2930307,0.190217097 L45.4602307,0.190217097 L45.4602307,5.0118171 L46.9218307,5.0118171 L46.9218307,6.0702171 L42.6882307,6.0702171 L42.6882307,5.0118171 L44.3514307,5.0118171 Z M2.10503069,21.8118171 L2.10503069,17.5446171 L1.95383069,17.5446171 L1.39943069,19.5606171 L0.341030692,19.5606171 L0.341030692,19.4598171 L1.04663069,16.9902171 L3.21383069,16.9902171 L3.21383069,21.8118171 L4.67543069,21.8118171 L4.67543069,22.8702171 L0.441830692,22.8702171 L0.441830692,21.8118171 L2.10503069,21.8118171 Z M7.03303069,19.9302171 C7.03303069,19.7398161 7.10302999,19.5746178 7.24303069,19.4346171 C7.38303139,19.2946164 7.54822974,19.2246171 7.73863069,19.2246171 C7.92903165,19.2246171 8.09422999,19.2946164 8.23423069,19.4346171 C8.37423139,19.5746178 8.44423069,19.7398161 8.44423069,19.9302171 C8.44423069,20.120618 8.37423139,20.2858164 8.23423069,20.4258171 C8.09422999,20.5658178 7.92903165,20.6358171 7.73863069,20.6358171 C7.54822974,20.6358171 7.38303139,20.5658178 7.24303069,20.4258171 C7.10302999,20.2858164 7.03303069,20.120618 7.03303069,19.9302171 Z M5.57143069,19.2750171 C5.57143069,18.5134133 5.76322878,17.9226192 6.14683069,17.5026171 C6.53043261,17.082615 7.06102731,16.8726171 7.73863069,16.8726171 C8.41623408,16.8726171 8.94682878,17.082615 9.33043069,17.5026171 C9.71403261,17.9226192 9.90583069,18.5134133 9.90583069,19.2750171 L9.90583069,20.5854171 C9.90583069,21.369421 9.71403261,21.9658151 9.33043069,22.3746171 C8.94682878,22.7834191 8.41623408,22.9878171 7.73863069,22.9878171 C7.06102731,22.9878171 6.53043261,22.7834191 6.14683069,22.3746171 C5.76322878,21.9658151 5.57143069,21.369421 5.57143069,20.5854171 L5.57143069,19.2750171 Z M7.73863069,21.9798171 C7.9402317,21.9798171 8.10823002,21.9476174 8.24263069,21.8832171 C8.37703137,21.8188168 8.48623027,21.7278177 8.57023069,21.6102171 C8.65423111,21.4926165 8.71303053,21.3526179 8.74663069,21.1902171 C8.78023086,21.0278163 8.79703069,20.8486181 8.79703069,20.6526171 L8.79703069,19.2078171 C8.79703069,19.0230162 8.77743089,18.8494179 8.73823069,18.6870171 C8.6990305,18.5246163 8.63743111,18.3846177 8.55343069,18.2670171 C8.46943027,18.1494165 8.36023137,18.0556174 8.22583069,17.9856171 C8.09143002,17.9156167 7.92903165,17.8806171 7.73863069,17.8806171 C7.54822974,17.8806171 7.38583137,17.9156167 7.25143069,17.9856171 C7.11703002,18.0556174 7.00783111,18.1494165 6.92383069,18.2670171 C6.83983027,18.3846177 6.77823089,18.5246163 6.73903069,18.6870171 C6.6998305,18.8494179 6.68023069,19.0230162 6.68023069,19.2078171 L6.68023069,20.6526171 C6.68023069,20.8486181 6.69703053,21.0278163 6.73063069,21.1902171 C6.76423086,21.3526179 6.82303027,21.4926165 6.90703069,21.6102171 C6.99103111,21.7278177 7.10023002,21.8188168 7.23463069,21.8832171 C7.36903137,21.9476174 7.53702969,21.9798171 7.73863069,21.9798171 Z M12.6666307,21.8118171 L12.6666307,17.5446171 L12.5154307,17.5446171 L11.9610307,19.5606171 L10.9026307,19.5606171 L10.9026307,19.4598171 L11.6082307,16.9902171 L13.7754307,16.9902171 L13.7754307,21.8118171 L15.2370307,21.8118171 L15.2370307,22.8702171 L11.0034307,22.8702171 L11.0034307,21.8118171 L12.6666307,21.8118171 Z M17.9474307,21.8118171 L17.9474307,17.5446171 L17.7962307,17.5446171 L17.2418307,19.5606171 L16.1834307,19.5606171 L16.1834307,19.4598171 L16.8890307,16.9902171 L19.0562307,16.9902171 L19.0562307,21.8118171 L20.5178307,21.8118171 L20.5178307,22.8702171 L16.2842307,22.8702171 L16.2842307,21.8118171 L17.9474307,21.8118171 Z M28.1562307,19.9302171 C28.1562307,19.7398161 28.22623,19.5746178 28.3662307,19.4346171 C28.5062314,19.2946164 28.6714298,19.2246171 28.8618307,19.2246171 C29.0522317,19.2246171 29.21743,19.2946164 29.3574307,19.4346171 C29.4974314,19.5746178 29.5674307,19.7398161 29.5674307,19.9302171 C29.5674307,20.120618 29.4974314,20.2858164 29.3574307,20.4258171 C29.21743,20.5658178 29.0522317,20.6358171 28.8618307,20.6358171 C28.6714298,20.6358171 28.5062314,20.5658178 28.3662307,20.4258171 C28.22623,20.2858164 28.1562307,20.120618 28.1562307,19.9302171 Z M26.6946307,19.2750171 C26.6946307,18.5134133 26.8864288,17.9226192 27.2700307,17.5026171 C27.6536326,17.082615 28.1842273,16.8726171 28.8618307,16.8726171 C29.5394341,16.8726171 30.0700288,17.082615 30.4536307,17.5026171 C30.8372326,17.9226192 31.0290307,18.5134133 31.0290307,19.2750171 L31.0290307,20.5854171 C31.0290307,21.369421 30.8372326,21.9658151 30.4536307,22.3746171 C30.0700288,22.7834191 29.5394341,22.9878171 28.8618307,22.9878171 C28.1842273,22.9878171 27.6536326,22.7834191 27.2700307,22.3746171 C26.8864288,21.9658151 26.6946307,21.369421 26.6946307,20.5854171 L26.6946307,19.2750171 Z M28.8618307,21.9798171 C29.0634317,21.9798171 29.23143,21.9476174 29.3658307,21.8832171 C29.5002314,21.8188168 29.6094303,21.7278177 29.6934307,21.6102171 C29.7774311,21.4926165 29.8362305,21.3526179 29.8698307,21.1902171 C29.9034309,21.0278163 29.9202307,20.8486181 29.9202307,20.6526171 L29.9202307,19.2078171 C29.9202307,19.0230162 29.9006309,18.8494179 29.8614307,18.6870171 C29.8222305,18.5246163 29.7606311,18.3846177 29.6766307,18.2670171 C29.5926303,18.1494165 29.4834314,18.0556174 29.3490307,17.9856171 C29.21463,17.9156167 29.0522317,17.8806171 28.8618307,17.8806171 C28.6714298,17.8806171 28.5090314,17.9156167 28.3746307,17.9856171 C28.24023,18.0556174 28.1310311,18.1494165 28.0470307,18.2670171 C27.9630303,18.3846177 27.9014309,18.5246163 27.8622307,18.6870171 C27.8230305,18.8494179 27.8034307,19.0230162 27.8034307,19.2078171 L27.8034307,20.6526171 C27.8034307,20.8486181 27.8202305,21.0278163 27.8538307,21.1902171 C27.8874309,21.3526179 27.9462303,21.4926165 28.0302307,21.6102171 C28.1142311,21.7278177 28.22343,21.8188168 28.3578307,21.8832171 C28.4922314,21.9476174 28.6602297,21.9798171 28.8618307,21.9798171 Z M33.7898307,21.8118171 L33.7898307,17.5446171 L33.6386307,17.5446171 L33.0842307,19.5606171 L32.0258307,19.5606171 L32.0258307,19.4598171 L32.7314307,16.9902171 L34.8986307,16.9902171 L34.8986307,21.8118171 L36.3602307,21.8118171 L36.3602307,22.8702171 L32.1266307,22.8702171 L32.1266307,21.8118171 L33.7898307,21.8118171 Z M39.0706307,21.8118171 L39.0706307,17.5446171 L38.9194307,17.5446171 L38.3650307,19.5606171 L37.3066307,19.5606171 L37.3066307,19.4598171 L38.0122307,16.9902171 L40.1794307,16.9902171 L40.1794307,21.8118171 L41.6410307,21.8118171 L41.6410307,22.8702171 L37.4074307,22.8702171 L37.4074307,21.8118171 L39.0706307,21.8118171 Z M44.3514307,21.8118171 L44.3514307,17.5446171 L44.2002307,17.5446171 L43.6458307,19.5606171 L42.5874307,19.5606171 L42.5874307,19.4598171 L43.2930307,16.9902171 L45.4602307,16.9902171 L45.4602307,21.8118171 L46.9218307,21.8118171 L46.9218307,22.8702171 L42.6882307,22.8702171 L42.6882307,21.8118171 L44.3514307,21.8118171 Z M1.75223069,36.7302171 C1.75223069,36.5398161 1.82222999,36.3746178 1.96223069,36.2346171 C2.10223139,36.0946164 2.26742974,36.0246171 2.45783069,36.0246171 C2.64823164,36.0246171 2.81342999,36.0946164 2.95343069,36.2346171 C3.09343139,36.3746178 3.16343069,36.5398161 3.16343069,36.7302171 C3.16343069,36.920618 3.09343139,37.0858164 2.95343069,37.2258171 C2.81342999,37.3658178 2.64823164,37.4358171 2.45783069,37.4358171 C2.26742974,37.4358171 2.10223139,37.3658178 1.96223069,37.2258171 C1.82222999,37.0858164 1.75223069,36.920618 1.75223069,36.7302171 Z M0.290630692,36.0750171 C0.290630692,35.3134133 0.482428774,34.7226192 0.866030692,34.3026171 C1.24963261,33.882615 1.7802273,33.6726171 2.45783069,33.6726171 C3.13543408,33.6726171 3.66602877,33.882615 4.04963069,34.3026171 C4.43323261,34.7226192 4.62503069,35.3134133 4.62503069,36.0750171 L4.62503069,37.3854171 C4.62503069,38.169421 4.43323261,38.7658151 4.04963069,39.1746171 C3.66602877,39.5834191 3.13543408,39.7878171 2.45783069,39.7878171 C1.7802273,39.7878171 1.24963261,39.5834191 0.866030692,39.1746171 C0.482428774,38.7658151 0.290630692,38.169421 0.290630692,37.3854171 L0.290630692,36.0750171 Z M2.45783069,38.7798171 C2.6594317,38.7798171 2.82743002,38.7476174 2.96183069,38.6832171 C3.09623136,38.6188168 3.20543027,38.5278177 3.28943069,38.4102171 C3.37343111,38.2926165 3.43223052,38.1526179 3.46583069,37.9902171 C3.49943086,37.8278163 3.51623069,37.6486181 3.51623069,37.4526171 L3.51623069,36.0078171 C3.51623069,35.8230162 3.49663089,35.6494179 3.45743069,35.4870171 C3.4182305,35.3246163 3.35663111,35.1846177 3.27263069,35.0670171 C3.18863027,34.9494165 3.07943136,34.8556174 2.94503069,34.7856171 C2.81063002,34.7156167 2.64823164,34.6806171 2.45783069,34.6806171 C2.26742974,34.6806171 2.10503136,34.7156167 1.97063069,34.7856171 C1.83623002,34.8556174 1.72703111,34.9494165 1.64303069,35.0670171 C1.55903027,35.1846177 1.49743089,35.3246163 1.45823069,35.4870171 C1.4190305,35.6494179 1.39943069,35.8230162 1.39943069,36.0078171 L1.39943069,37.4526171 C1.39943069,37.6486181 1.41623052,37.8278163 1.44983069,37.9902171 C1.48343086,38.1526179 1.54223027,38.2926165 1.62623069,38.4102171 C1.71023111,38.5278177 1.81943002,38.6188168 1.95383069,38.6832171 C2.08823136,38.7476174 2.25622968,38.7798171 2.45783069,38.7798171 Z M7.03303069,36.7302171 C7.03303069,36.5398161 7.10302999,36.3746178 7.24303069,36.2346171 C7.38303139,36.0946164 7.54822974,36.0246171 7.73863069,36.0246171 C7.92903165,36.0246171 8.09422999,36.0946164 8.23423069,36.2346171 C8.37423139,36.3746178 8.44423069,36.5398161 8.44423069,36.7302171 C8.44423069,36.920618 8.37423139,37.0858164 8.23423069,37.2258171 C8.09422999,37.3658178 7.92903165,37.4358171 7.73863069,37.4358171 C7.54822974,37.4358171 7.38303139,37.3658178 7.24303069,37.2258171 C7.10302999,37.0858164 7.03303069,36.920618 7.03303069,36.7302171 Z M5.57143069,36.0750171 C5.57143069,35.3134133 5.76322878,34.7226192 6.14683069,34.3026171 C6.53043261,33.882615 7.06102731,33.6726171 7.73863069,33.6726171 C8.41623408,33.6726171 8.94682878,33.882615 9.33043069,34.3026171 C9.71403261,34.7226192 9.90583069,35.3134133 9.90583069,36.0750171 L9.90583069,37.3854171 C9.90583069,38.169421 9.71403261,38.7658151 9.33043069,39.1746171 C8.94682878,39.5834191 8.41623408,39.7878171 7.73863069,39.7878171 C7.06102731,39.7878171 6.53043261,39.5834191 6.14683069,39.1746171 C5.76322878,38.7658151 5.57143069,38.169421 5.57143069,37.3854171 L5.57143069,36.0750171 Z M7.73863069,38.7798171 C7.9402317,38.7798171 8.10823002,38.7476174 8.24263069,38.6832171 C8.37703137,38.6188168 8.48623027,38.5278177 8.57023069,38.4102171 C8.65423111,38.2926165 8.71303053,38.1526179 8.74663069,37.9902171 C8.78023086,37.8278163 8.79703069,37.6486181 8.79703069,37.4526171 L8.79703069,36.0078171 C8.79703069,35.8230162 8.77743089,35.6494179 8.73823069,35.4870171 C8.6990305,35.3246163 8.63743111,35.1846177 8.55343069,35.0670171 C8.46943027,34.9494165 8.36023137,34.8556174 8.22583069,34.7856171 C8.09143002,34.7156167 7.92903165,34.6806171 7.73863069,34.6806171 C7.54822974,34.6806171 7.38583137,34.7156167 7.25143069,34.7856171 C7.11703002,34.8556174 7.00783111,34.9494165 6.92383069,35.0670171 C6.83983027,35.1846177 6.77823089,35.3246163 6.73903069,35.4870171 C6.6998305,35.6494179 6.68023069,35.8230162 6.68023069,36.0078171 L6.68023069,37.4526171 C6.68023069,37.6486181 6.69703053,37.8278163 6.73063069,37.9902171 C6.76423086,38.1526179 6.82303027,38.2926165 6.90703069,38.4102171 C6.99103111,38.5278177 7.10023002,38.6188168 7.23463069,38.6832171 C7.36903137,38.7476174 7.53702969,38.7798171 7.73863069,38.7798171 Z M12.6666307,38.6118171 L12.6666307,34.3446171 L12.5154307,34.3446171 L11.9610307,36.3606171 L10.9026307,36.3606171 L10.9026307,36.2598171 L11.6082307,33.7902171 L13.7754307,33.7902171 L13.7754307,38.6118171 L15.2370307,38.6118171 L15.2370307,39.6702171 L11.0034307,39.6702171 L11.0034307,38.6118171 L12.6666307,38.6118171 Z M17.5946307,36.7302171 C17.5946307,36.5398161 17.66463,36.3746178 17.8046307,36.2346171 C17.9446314,36.0946164 18.1098297,36.0246171 18.3002307,36.0246171 C18.4906317,36.0246171 18.65583,36.0946164 18.7958307,36.2346171 C18.9358314,36.3746178 19.0058307,36.5398161 19.0058307,36.7302171 C19.0058307,36.920618 18.9358314,37.0858164 18.7958307,37.2258171 C18.65583,37.3658178 18.4906317,37.4358171 18.3002307,37.4358171 C18.1098297,37.4358171 17.9446314,37.3658178 17.8046307,37.2258171 C17.66463,37.0858164 17.5946307,36.920618 17.5946307,36.7302171 Z M16.1330307,36.0750171 C16.1330307,35.3134133 16.3248288,34.7226192 16.7084307,34.3026171 C17.0920326,33.882615 17.6226273,33.6726171 18.3002307,33.6726171 C18.9778341,33.6726171 19.5084288,33.882615 19.8920307,34.3026171 C20.2756326,34.7226192 20.4674307,35.3134133 20.4674307,36.0750171 L20.4674307,37.3854171 C20.4674307,38.169421 20.2756326,38.7658151 19.8920307,39.1746171 C19.5084288,39.5834191 18.9778341,39.7878171 18.3002307,39.7878171 C17.6226273,39.7878171 17.0920326,39.5834191 16.7084307,39.1746171 C16.3248288,38.7658151 16.1330307,38.169421 16.1330307,37.3854171 L16.1330307,36.0750171 Z M18.3002307,38.7798171 C18.5018317,38.7798171 18.66983,38.7476174 18.8042307,38.6832171 C18.9386314,38.6188168 19.0478303,38.5278177 19.1318307,38.4102171 C19.2158311,38.2926165 19.2746305,38.1526179 19.3082307,37.9902171 C19.3418309,37.8278163 19.3586307,37.6486181 19.3586307,37.4526171 L19.3586307,36.0078171 C19.3586307,35.8230162 19.3390309,35.6494179 19.2998307,35.4870171 C19.2606305,35.3246163 19.1990311,35.1846177 19.1150307,35.0670171 C19.0310303,34.9494165 18.9218314,34.8556174 18.7874307,34.7856171 C18.65303,34.7156167 18.4906317,34.6806171 18.3002307,34.6806171 C18.1098297,34.6806171 17.9474314,34.7156167 17.8130307,34.7856171 C17.67863,34.8556174 17.5694311,34.9494165 17.4854307,35.0670171 C17.4014303,35.1846177 17.3398309,35.3246163 17.3006307,35.4870171 C17.2614305,35.6494179 17.2418307,35.8230162 17.2418307,36.0078171 L17.2418307,37.4526171 C17.2418307,37.6486181 17.2586305,37.8278163 17.2922307,37.9902171 C17.3258309,38.1526179 17.3846303,38.2926165 17.4686307,38.4102171 C17.5526311,38.5278177 17.66183,38.6188168 17.7962307,38.6832171 C17.9306314,38.7476174 18.0986297,38.7798171 18.3002307,38.7798171 Z M28.5090307,38.6118171 L28.5090307,34.3446171 L28.3578307,34.3446171 L27.8034307,36.3606171 L26.7450307,36.3606171 L26.7450307,36.2598171 L27.4506307,33.7902171 L29.6178307,33.7902171 L29.6178307,38.6118171 L31.0794307,38.6118171 L31.0794307,39.6702171 L26.8458307,39.6702171 L26.8458307,38.6118171 L28.5090307,38.6118171 Z M33.4370307,36.7302171 C33.4370307,36.5398161 33.50703,36.3746178 33.6470307,36.2346171 C33.7870314,36.0946164 33.9522298,36.0246171 34.1426307,36.0246171 C34.3330317,36.0246171 34.49823,36.0946164 34.6382307,36.2346171 C34.7782314,36.3746178 34.8482307,36.5398161 34.8482307,36.7302171 C34.8482307,36.920618 34.7782314,37.0858164 34.6382307,37.2258171 C34.49823,37.3658178 34.3330317,37.4358171 34.1426307,37.4358171 C33.9522298,37.4358171 33.7870314,37.3658178 33.6470307,37.2258171 C33.50703,37.0858164 33.4370307,36.920618 33.4370307,36.7302171 Z M31.9754307,36.0750171 C31.9754307,35.3134133 32.1672288,34.7226192 32.5508307,34.3026171 C32.9344326,33.882615 33.4650273,33.6726171 34.1426307,33.6726171 C34.8202341,33.6726171 35.3508288,33.882615 35.7344307,34.3026171 C36.1180326,34.7226192 36.3098307,35.3134133 36.3098307,36.0750171 L36.3098307,37.3854171 C36.3098307,38.169421 36.1180326,38.7658151 35.7344307,39.1746171 C35.3508288,39.5834191 34.8202341,39.7878171 34.1426307,39.7878171 C33.4650273,39.7878171 32.9344326,39.5834191 32.5508307,39.1746171 C32.1672288,38.7658151 31.9754307,38.169421 31.9754307,37.3854171 L31.9754307,36.0750171 Z M34.1426307,38.7798171 C34.3442317,38.7798171 34.51223,38.7476174 34.6466307,38.6832171 C34.7810314,38.6188168 34.8902303,38.5278177 34.9742307,38.4102171 C35.0582311,38.2926165 35.1170305,38.1526179 35.1506307,37.9902171 C35.1842309,37.8278163 35.2010307,37.6486181 35.2010307,37.4526171 L35.2010307,36.0078171 C35.2010307,35.8230162 35.1814309,35.6494179 35.1422307,35.4870171 C35.1030305,35.3246163 35.0414311,35.1846177 34.9574307,35.0670171 C34.8734303,34.9494165 34.7642314,34.8556174 34.6298307,34.7856171 C34.49543,34.7156167 34.3330317,34.6806171 34.1426307,34.6806171 C33.9522298,34.6806171 33.7898314,34.7156167 33.6554307,34.7856171 C33.52103,34.8556174 33.4118311,34.9494165 33.3278307,35.0670171 C33.2438303,35.1846177 33.1822309,35.3246163 33.1430307,35.4870171 C33.1038305,35.6494179 33.0842307,35.8230162 33.0842307,36.0078171 L33.0842307,37.4526171 C33.0842307,37.6486181 33.1010305,37.8278163 33.1346307,37.9902171 C33.1682309,38.1526179 33.2270303,38.2926165 33.3110307,38.4102171 C33.3950311,38.5278177 33.50423,38.6188168 33.6386307,38.6832171 C33.7730314,38.7476174 33.9410297,38.7798171 34.1426307,38.7798171 Z M38.7178307,36.7302171 C38.7178307,36.5398161 38.78783,36.3746178 38.9278307,36.2346171 C39.0678314,36.0946164 39.2330298,36.0246171 39.4234307,36.0246171 C39.6138317,36.0246171 39.77903,36.0946164 39.9190307,36.2346171 C40.0590314,36.3746178 40.1290307,36.5398161 40.1290307,36.7302171 C40.1290307,36.920618 40.0590314,37.0858164 39.9190307,37.2258171 C39.77903,37.3658178 39.6138317,37.4358171 39.4234307,37.4358171 C39.2330298,37.4358171 39.0678314,37.3658178 38.9278307,37.2258171 C38.78783,37.0858164 38.7178307,36.920618 38.7178307,36.7302171 Z M37.2562307,36.0750171 C37.2562307,35.3134133 37.4480288,34.7226192 37.8316307,34.3026171 C38.2152326,33.882615 38.7458273,33.6726171 39.4234307,33.6726171 C40.1010341,33.6726171 40.6316288,33.882615 41.0152307,34.3026171 C41.3988326,34.7226192 41.5906307,35.3134133 41.5906307,36.0750171 L41.5906307,37.3854171 C41.5906307,38.169421 41.3988326,38.7658151 41.0152307,39.1746171 C40.6316288,39.5834191 40.1010341,39.7878171 39.4234307,39.7878171 C38.7458273,39.7878171 38.2152326,39.5834191 37.8316307,39.1746171 C37.4480288,38.7658151 37.2562307,38.169421 37.2562307,37.3854171 L37.2562307,36.0750171 Z M39.4234307,38.7798171 C39.6250317,38.7798171 39.79303,38.7476174 39.9274307,38.6832171 C40.0618314,38.6188168 40.1710303,38.5278177 40.2550307,38.4102171 C40.3390311,38.2926165 40.3978305,38.1526179 40.4314307,37.9902171 C40.4650309,37.8278163 40.4818307,37.6486181 40.4818307,37.4526171 L40.4818307,36.0078171 C40.4818307,35.8230162 40.4622309,35.6494179 40.4230307,35.4870171 C40.3838305,35.3246163 40.3222311,35.1846177 40.2382307,35.0670171 C40.1542303,34.9494165 40.0450314,34.8556174 39.9106307,34.7856171 C39.77623,34.7156167 39.6138317,34.6806171 39.4234307,34.6806171 C39.2330298,34.6806171 39.0706314,34.7156167 38.9362307,34.7856171 C38.80183,34.8556174 38.6926311,34.9494165 38.6086307,35.0670171 C38.5246303,35.1846177 38.4630309,35.3246163 38.4238307,35.4870171 C38.3846305,35.6494179 38.3650307,35.8230162 38.3650307,36.0078171 L38.3650307,37.4526171 C38.3650307,37.6486181 38.3818305,37.8278163 38.4154307,37.9902171 C38.4490309,38.1526179 38.5078303,38.2926165 38.5918307,38.4102171 C38.6758311,38.5278177 38.78503,38.6188168 38.9194307,38.6832171 C39.0538314,38.7476174 39.2218297,38.7798171 39.4234307,38.7798171 Z M44.3514307,38.6118171 L44.3514307,34.3446171 L44.2002307,34.3446171 L43.6458307,36.3606171 L42.5874307,36.3606171 L42.5874307,36.2598171 L43.2930307,33.7902171 L45.4602307,33.7902171 L45.4602307,38.6118171 L46.9218307,38.6118171 L46.9218307,39.6702171 L42.6882307,39.6702171 L42.6882307,38.6118171 L44.3514307,38.6118171 Z" id="1011-0111-1011-0111"></path>
                        <path d="M101.688745,46.9849018 L101.688745,42.7177018 L101.537545,42.7177018 L100.983145,44.7337018 L99.9247445,44.7337018 L99.9247445,44.6329018 L100.630345,42.1633018 L102.797545,42.1633018 L102.797545,46.9849018 L104.259145,46.9849018 L104.259145,48.0433018 L100.025545,48.0433018 L100.025545,46.9849018 L101.688745,46.9849018 Z M106.616745,45.1033018 C106.616745,44.9129009 106.686744,44.7477025 106.826745,44.6077018 C106.966745,44.4677011 107.131944,44.3977018 107.322345,44.3977018 C107.512745,44.3977018 107.677944,44.4677011 107.817945,44.6077018 C107.957945,44.7477025 108.027945,44.9129009 108.027945,45.1033018 C108.027945,45.2937028 107.957945,45.4589011 107.817945,45.5989018 C107.677944,45.7389025 107.512745,45.8089018 107.322345,45.8089018 C107.131944,45.8089018 106.966745,45.7389025 106.826745,45.5989018 C106.686744,45.4589011 106.616745,45.2937028 106.616745,45.1033018 Z M105.155145,44.4481018 C105.155145,43.686498 105.346943,43.0957039 105.730545,42.6757018 C106.114146,42.2556997 106.644741,42.0457018 107.322345,42.0457018 C107.999948,42.0457018 108.530543,42.2556997 108.914145,42.6757018 C109.297746,43.0957039 109.489545,43.686498 109.489545,44.4481018 L109.489545,45.7585018 C109.489545,46.5425057 109.297746,47.1388998 108.914145,47.5477018 C108.530543,47.9565039 107.999948,48.1609018 107.322345,48.1609018 C106.644741,48.1609018 106.114146,47.9565039 105.730545,47.5477018 C105.346943,47.1388998 105.155145,46.5425057 105.155145,45.7585018 L105.155145,44.4481018 Z M107.322345,47.1529018 C107.523946,47.1529018 107.691944,47.1207021 107.826345,47.0563018 C107.960745,46.9919015 108.069944,46.9009024 108.153945,46.7833018 C108.237945,46.6657012 108.296744,46.5257026 108.330345,46.3633018 C108.363945,46.200901 108.380745,46.0217028 108.380745,45.8257018 L108.380745,44.3809018 C108.380745,44.1961009 108.361145,44.0225026 108.321945,43.8601018 C108.282744,43.697701 108.221145,43.5577024 108.137145,43.4401018 C108.053144,43.3225012 107.943945,43.2287022 107.809545,43.1587018 C107.675144,43.0887015 107.512745,43.0537018 107.322345,43.0537018 C107.131944,43.0537018 106.969545,43.0887015 106.835145,43.1587018 C106.700744,43.2287022 106.591545,43.3225012 106.507545,43.4401018 C106.423544,43.5577024 106.361945,43.697701 106.322745,43.8601018 C106.283544,44.0225026 106.263945,44.1961009 106.263945,44.3809018 L106.263945,45.8257018 C106.263945,46.0217028 106.280744,46.200901 106.314345,46.3633018 C106.347945,46.5257026 106.406744,46.6657012 106.490745,46.7833018 C106.574745,46.9009024 106.683944,46.9919015 106.818345,47.0563018 C106.952745,47.1207021 107.120744,47.1529018 107.322345,47.1529018 Z M112.250345,46.9849018 L112.250345,42.7177018 L112.099145,42.7177018 L111.544745,44.7337018 L110.486345,44.7337018 L110.486345,44.6329018 L111.191945,42.1633018 L113.359145,42.1633018 L113.359145,46.9849018 L114.820745,46.9849018 L114.820745,48.0433018 L110.587145,48.0433018 L110.587145,46.9849018 L112.250345,46.9849018 Z M117.531145,46.9849018 L117.531145,42.7177018 L117.379945,42.7177018 L116.825545,44.7337018 L115.767145,44.7337018 L115.767145,44.6329018 L116.472745,42.1633018 L118.639945,42.1633018 L118.639945,46.9849018 L120.101545,46.9849018 L120.101545,48.0433018 L115.867945,48.0433018 L115.867945,46.9849018 L117.531145,46.9849018 Z M101.688745,63.7849018 L101.688745,59.5177018 L101.537545,59.5177018 L100.983145,61.5337018 L99.9247445,61.5337018 L99.9247445,61.4329018 L100.630345,58.9633018 L102.797545,58.9633018 L102.797545,63.7849018 L104.259145,63.7849018 L104.259145,64.8433018 L100.025545,64.8433018 L100.025545,63.7849018 L101.688745,63.7849018 Z M106.616745,61.9033018 C106.616745,61.7129009 106.686744,61.5477025 106.826745,61.4077018 C106.966745,61.2677011 107.131944,61.1977018 107.322345,61.1977018 C107.512745,61.1977018 107.677944,61.2677011 107.817945,61.4077018 C107.957945,61.5477025 108.027945,61.7129009 108.027945,61.9033018 C108.027945,62.0937028 107.957945,62.2589011 107.817945,62.3989018 C107.677944,62.5389025 107.512745,62.6089018 107.322345,62.6089018 C107.131944,62.6089018 106.966745,62.5389025 106.826745,62.3989018 C106.686744,62.2589011 106.616745,62.0937028 106.616745,61.9033018 Z M105.155145,61.2481018 C105.155145,60.486498 105.346943,59.8957039 105.730545,59.4757018 C106.114146,59.0556997 106.644741,58.8457018 107.322345,58.8457018 C107.999948,58.8457018 108.530543,59.0556997 108.914145,59.4757018 C109.297746,59.8957039 109.489545,60.486498 109.489545,61.2481018 L109.489545,62.5585018 C109.489545,63.3425057 109.297746,63.9388998 108.914145,64.3477018 C108.530543,64.7565039 107.999948,64.9609018 107.322345,64.9609018 C106.644741,64.9609018 106.114146,64.7565039 105.730545,64.3477018 C105.346943,63.9388998 105.155145,63.3425057 105.155145,62.5585018 L105.155145,61.2481018 Z M107.322345,63.9529018 C107.523946,63.9529018 107.691944,63.9207021 107.826345,63.8563018 C107.960745,63.7919015 108.069944,63.7009024 108.153945,63.5833018 C108.237945,63.4657012 108.296744,63.3257026 108.330345,63.1633018 C108.363945,63.000901 108.380745,62.8217028 108.380745,62.6257018 L108.380745,61.1809018 C108.380745,60.9961009 108.361145,60.8225026 108.321945,60.6601018 C108.282744,60.497701 108.221145,60.3577024 108.137145,60.2401018 C108.053144,60.1225012 107.943945,60.0287022 107.809545,59.9587018 C107.675144,59.8887015 107.512745,59.8537018 107.322345,59.8537018 C107.131944,59.8537018 106.969545,59.8887015 106.835145,59.9587018 C106.700744,60.0287022 106.591545,60.1225012 106.507545,60.2401018 C106.423544,60.3577024 106.361945,60.497701 106.322745,60.6601018 C106.283544,60.8225026 106.263945,60.9961009 106.263945,61.1809018 L106.263945,62.6257018 C106.263945,62.8217028 106.280744,63.000901 106.314345,63.1633018 C106.347945,63.3257026 106.406744,63.4657012 106.490745,63.5833018 C106.574745,63.7009024 106.683944,63.7919015 106.818345,63.8563018 C106.952745,63.9207021 107.120744,63.9529018 107.322345,63.9529018 Z M112.250345,63.7849018 L112.250345,59.5177018 L112.099145,59.5177018 L111.544745,61.5337018 L110.486345,61.5337018 L110.486345,61.4329018 L111.191945,58.9633018 L113.359145,58.9633018 L113.359145,63.7849018 L114.820745,63.7849018 L114.820745,64.8433018 L110.587145,64.8433018 L110.587145,63.7849018 L112.250345,63.7849018 Z M117.531145,63.7849018 L117.531145,59.5177018 L117.379945,59.5177018 L116.825545,61.5337018 L115.767145,61.5337018 L115.767145,61.4329018 L116.472745,58.9633018 L118.639945,58.9633018 L118.639945,63.7849018 L120.101545,63.7849018 L120.101545,64.8433018 L115.867945,64.8433018 L115.867945,63.7849018 L117.531145,63.7849018 Z" id="1011-1011"></path>
                    </g>
                    <path d="" id="Path-9" stroke="#979797" stroke-width="1.4"></path>
                    <path d="M26.9802853,62.7995518 C26.5936859,62.7995518 26.2802853,62.4861511 26.2802853,62.0995518 C26.2802853,61.7129525 26.5936859,61.3995518 26.9802853,61.3995518 C33.2800515,61.3995518 40.4836482,59.9038177 45.9624231,57.1799734 C52.5602337,53.899786 56.2995993,49.1421909 56.2995993,43.0167501 C56.2995993,38.3062684 58.2328809,36.0961502 61.8771875,36.0961502 C64.4404893,36.0961502 66.5889166,36.7627945 73.1774925,39.2516132 C73.9405471,39.5398552 74.4880051,39.7447405 75.0305767,39.9441068 C79.432926,41.5617366 82.3163307,42.3167501 84.7886907,42.3167501 C87.8365166,42.3167501 89.0909594,40.680102 88.7317542,37.0320203 C88.3456061,33.1103077 86.0318654,27.1281834 81.7862871,19.1317132 C81.6049968,18.7902562 81.7348375,18.3664858 82.0762945,18.1851955 C82.4177515,18.0039052 82.8415219,18.133746 83.0228122,18.475203 C87.3476344,26.6209275 89.7164509,32.7454492 90.1250165,36.8948339 C90.560525,41.3178496 88.7218381,43.7167501 84.7886907,43.7167501 C82.1017888,43.7167501 79.0982327,42.9302752 74.5477165,41.258202 C74.0003893,41.0570883 73.4494358,40.8508947 72.6827663,40.5612872 C66.3029772,38.1513372 64.1914739,37.4961502 61.8771875,37.4961502 C59.0508529,37.4961502 57.6995993,39.0408967 57.6995993,43.0167501 C57.6995993,49.7437455 53.6172073,54.9377732 46.5856754,58.4335909 C40.9009937,61.2598044 33.4854246,62.7995518 26.9802853,62.7995518 Z" id="Path-10" fill="#213A8F" fill-rule="nonzero"></path>
                    <path d="M21.1654805,74.7433018 L32.4598164,102.043302" id="Line-4-Copy" stroke="#213A8F" stroke-width="2.8" stroke-linecap="round" transform="translate(26.765480, 88.043302) scale(-1, 1) translate(-26.765480, -88.043302) "></path>
                    <path d="M84.7711445,74.7433018 L96.0654805,102.043302" id="Line-4-Copy-2" stroke="#213A8F" stroke-width="2.8" stroke-linecap="round"></path>
                    <path d="M58.1711445,74.7433018 L58.1711445,96.1206456" id="Line-4" stroke="#213A8F" stroke-width="2.8" stroke-linecap="round"></path>
                    <polyline id="Path-11" stroke="#213A8F" stroke-width="2.8" points="26.8406758 89.5636143 57.5285664 83.3456456 90.3492695 89.5636143"></polyline>
                    <circle id="Oval-2" stroke="#213A8F" stroke-width="1.4" cx="18.2711445" cy="61.4433018" r="4.48875795"></circle>
                </g>
            </g>
        </g>
    </g>
</svg>